<?xml version="1.0" encoding="utf-8"?>
<!-- Generator: Adobe Illustrator 21.1.0, SVG Export Plug-In . SVG Version: 6.00 Build 0)  -->
<svg version="1.1" id="Calque_1" xmlns="http://www.w3.org/2000/svg" xmlns:xlink="http://www.w3.org/1999/xlink" x="0px" y="0px"
	 viewBox="0 0 841.9 595.3" style="enable-background:new 0 0 841.9 595.3;" xml:space="preserve">
<style type="text/css">
	.st0{fill:#FFFFFF;}
	.st1{fill:#FFFFFF;}
	.st2{fill:#FFFFFF;}
</style>
<g>
	<g>
		<path class="st0" d="M423,424.1c-114.7,0-208.1-93.3-208.1-208.1S308.3,8,423,8s208.1,93.3,208.1,208.1S537.7,424.1,423,424.1z
			 M423,32.6c-101.2,0-183.5,82.3-183.5,183.5S321.8,399.6,423,399.6h0c101.2,0,183.5-82.3,183.5-183.5S524.2,32.6,423,32.6z"/>
	</g>
	<g>
		<g>
			<path class="st0" d="M394.7,194c12.5-3.6,18.1-22.3,12.5-41.8c-5.6-19.5-20.3-32.3-32.8-28.7c-12.5,3.6-18.1,22.3-12.5,41.8
				C367.5,184.8,382.2,197.6,394.7,194z"/>
		</g>
		<g>
			<path class="st0" d="M356.8,232.7c-3,1.6-6.4,2.1-9.9,1.6c-1.7-2.2-3.5-4.5-5.2-6.8c-10.7-14.5-20.1-29.8-25.9-46.7
				c1.5-4.2,4-7.5,7.6-9.5c10.9-5.9,27.2,3.1,36.3,20C369,208.3,367.6,226.8,356.8,232.7z"/>
		</g>
		<g>
			<path class="st0" d="M474.5,304.1c-29.7,10.5-30.1-12.3-54.6-11.2c-0.5,0-0.9,0-1.3,0.1c2.8-1.6,34.9-19.8,34.9-38.3
				c-0.1-10.5-8.6-19-19.1-19.1c-6.4,0-12.5,3.2-16,8.6c-3.5-5.4-9.5-8.6-15.9-8.6h-0.1c-10.5,0-19.1,8.6-19.1,19.1
				c0,18.3,32.4,36.9,34.9,38.3c-0.5,0-1-0.1-1.5-0.1c-3.3-0.2-6.2,0.1-8.7,0.7c-18.2-12.9-34.6-28-49.3-44.8
				c12.8-25.9,36.8-50.9,59.6-50.9C462.3,197.9,511,291.1,474.5,304.1z"/>
		</g>
		<g>
			<path class="st0" d="M441.9,194c12.5,3.6,27.2-9.3,32.8-28.7c5.6-19.5,0-38.2-12.5-41.8c-12.5-3.6-27.2,9.3-32.8,28.7
				C423.8,171.7,429.4,190.4,441.9,194z"/>
		</g>
		<g>
			<path class="st0" d="M513.2,171.4c-10.9-5.9-27.2,3.1-36.3,20c-9.2,16.9-7.8,35.5,3.1,41.4c10.9,5.9,27.2-3.1,36.4-20
				C525.4,195.8,524.1,177.3,513.2,171.4z"/>
		</g>
	</g>
	<g>
		<g>
			<path class="st1" d="M519.5,283.9c0.3,4.5,0.8,9.6,1.1,14.8c1.2,22.4-13,35.2-35.6,33.8c-16.6-1-31.8-6.8-46.3-14.5
				c-10.7-5.6-20.8-11.9-30.4-18.7c-19.2-13.6-36.3-29.4-51.8-47.1c-4.3-4.9-8.4-9.9-12.5-15.1c-1.8-2.4-3.6-4.7-5.4-7.1
				c-11.3-15.2-21.2-31.3-27.2-49.1c-1.9-5.6-3.4-11.3-4.4-17.3c-4.3-24.2,6.5-44,35.6-41.7c3.4,0.3,6.8,0.6,10.1,0.9
				c-3.3-1.8-6.8-3.2-10.3-4c-5.8-1.4-11.5-3.1-17.4-3.4c-7.3-0.4-15-0.6-22,1.2c-16,4-24.8,17.7-24.2,35
				c0.4,13.5,3.7,26.4,8.9,38.8c12.3,29.5,30.6,55.1,52,78.6c2.6,2.9,5.3,5.7,8,8.5c11.7,12.2,24,23.6,37.1,33.9
				c16.9,13.3,35,25,54.8,34.5c16.7,8,34,13.9,52.9,13.7c17.2-0.2,30.3-9,34.1-23.8C531.4,317.2,525.8,300.1,519.5,283.9z
				 M432.8,334.1c4.2-1.9,54.3,11.8,59,16.1C470,350.5,451.5,343.3,432.8,334.1z"/>
		</g>
	</g>
	<g>
		<g>
			<path class="st1" d="M288.8,487.5c0,5.8-1.1,11.3-3.3,16.3c-2.2,5.1-5.2,9.5-9,13.2c-3.8,3.7-8.2,6.7-13.4,8.9
				c-5.1,2.2-10.5,3.3-16.2,3.3h-8.7v42.6c0,4.4-1.5,8.1-4.5,11c-3,3-6.7,4.5-11,4.5c-4.4,0-8.1-1.5-11-4.5c-3-3-4.5-6.6-4.5-11
				V462.2c-0.1-2-0.4-4-0.8-5.9c-0.4-2-0.6-3.8-0.4-5.4c0.2-1.6,0.9-2.9,2.2-3.9c1.3-1,3.8-1.5,7.4-1.5h31.3
				c5.7,0,11.1,1.1,16.2,3.3c5.1,2.2,9.6,5.2,13.4,9c3.8,3.8,6.8,8.2,9,13.4C287.7,476.3,288.8,481.8,288.8,487.5z M257.4,488.3
				c0-3-1-5.6-3.1-7.9c-2-2.3-4.5-3.5-7.5-3.6l-8.7-0.3v22.3l8.7-0.3c3-0.1,5.5-1.1,7.5-2.9C256.4,493.7,257.4,491.3,257.4,488.3z"
				/>
		</g>
	</g>
	<g>
		<g>
			<path class="st1" d="M334.6,551.4c0,1.2-0.3,2.3-0.8,3.5c-0.5,1.2-1.3,2.2-2.3,3c-1,0.9-2.1,1.5-3.4,2.1
				c-1.3,0.5-2.7,0.8-4.1,0.8c-2.4,0.1-4.7,0.1-6.8,0.1c-2.1,0-4.2-0.1-6.3-0.1c-2.1,0-4.3-0.1-6.6-0.1c-2.3,0-4.8-0.1-7.6-0.1
				c0.4,1.2,1.1,2,1.9,2.5c0.8,0.5,2,0.7,3.5,0.7c1,0,1.9-0.1,2.7-0.3c0.8-0.2,1.6-0.5,2.5-0.7c0.9-0.3,1.7-0.5,2.7-0.7
				c0.9-0.2,2-0.3,3.3-0.3c3.1,0,5.7,1,8,3c2.3,2,3.4,4.5,3.4,7.5c0,2.1-0.7,4-2,5.8c-1.3,1.8-2.9,3.1-4.6,4c-2.2,1.2-4.8,2-7.7,2.6
				c-2.9,0.5-5.7,0.8-8.3,0.8c-4.5,0-8.7-0.9-12.7-2.6c-4-1.7-7.4-4-10.4-7c-3-3-5.3-6.4-7-10.4c-1.7-3.9-2.6-8.2-2.6-12.7
				c0-4.5,0.9-8.7,2.6-12.7c1.7-3.9,4-7.4,7-10.4c3-3,6.4-5.3,10.4-7c3.9-1.7,8.2-2.6,12.7-2.6c4.5,0,8.7,0.8,12.7,2.4
				c3.9,1.6,7.4,3.7,10.4,6.5c3,2.8,5.3,6.1,7,9.9C333.7,542.7,334.6,546.9,334.6,551.4z M302,541c-1.3,0-2.4,0.3-3.3,0.9
				c-0.9,0.6-1.5,1.4-1.8,2.4h10.2c-0.2-1-0.8-1.8-1.8-2.4C304.3,541.3,303.2,541,302,541z"/>
		</g>
	</g>
	<g>
		<g>
			<path class="st1" d="M340.1,532.4c0-3.6,1.2-6.6,3.6-8.9c2.4-2.3,5.4-3.5,9-3.5c0.7,0,1.3,0,1.6,0.1v-7.9c0-3.5,1.2-6.5,3.6-9
				c2.4-2.5,5.4-3.7,9-3.7c1.7,0,3.3,0.3,4.9,1c1.6,0.7,2.9,1.6,4,2.7c1.1,1.1,2,2.5,2.7,4c0.7,1.6,1,3.2,1,4.9v7.9
				c0.4-0.1,0.9-0.1,1.7-0.1c3.5,0,6.5,1.2,9,3.5c2.5,2.3,3.7,5.3,3.7,8.9c0,3.5-1.2,6.4-3.7,8.8c-2.5,2.4-5.5,3.6-9,3.6h-1.7v27.9
				c0,3.6-1.2,6.6-3.7,9c-2.5,2.4-5.5,3.6-9,3.6c-3.6,0-6.6-1.2-9-3.6c-2.4-2.4-3.6-5.4-3.6-9v-27.9h-1.6c-3.6,0-6.6-1.2-9-3.6
				C341.3,538.8,340.1,535.9,340.1,532.4z"/>
		</g>
	</g>
	<g>
		<g>
			<path class="st1" d="M424.1,585.3c-2.9,0-6-0.4-9.4-1.3c-3.4-0.9-6.6-2.1-9.5-3.6c-2.9-1.6-5.3-3.5-7.3-5.8
				c-1.9-2.3-2.9-4.9-2.9-7.7c0-2.9,1-5.3,3-7.4c2-2.1,4.4-3.1,7.4-3.1c2,0,4,0.4,6,1.2c2,0.8,3.9,1.7,5.8,2.7
				c1.8,1,3.5,1.9,5.1,2.7c1.6,0.8,3,1.2,4.2,1.2c0.5,0,1-0.1,1.3-0.4c0.4-0.3,0.5-0.5,0.5-0.7c0-0.4-0.7-1-2.2-1.5
				c-1.5-0.6-3.3-1.3-5.5-2c-2.2-0.8-4.5-1.7-7.1-2.8c-2.6-1.1-5-2.4-7.1-4c-2.2-1.5-4-3.3-5.5-5.4c-1.5-2.1-2.2-4.5-2.2-7.3
				c0-2,0.4-4.1,1.3-6.5c0.9-2.3,2.4-4.5,4.4-6.5c2-2,4.6-3.6,7.9-5c3.2-1.3,7.2-2,12-2c3.6,0,7,0.3,10.4,1c3.3,0.7,6.2,1.7,8.8,3
				c2.5,1.3,4.5,3,6,4.9c1.5,1.9,2.2,4.2,2.2,6.7c0,1.9-0.4,3.5-1.1,4.8c-0.7,1.3-1.6,2.5-2.7,3.4c-1.1,0.9-2.2,1.6-3.5,2
				c-1.3,0.5-2.5,0.7-3.6,0.7c-1.7,0-3.3-0.3-4.8-0.9c-1.5-0.6-2.9-1.2-4.1-1.9c-1.3-0.7-2.4-1.3-3.4-1.9c-1-0.6-1.9-0.9-2.7-0.9
				c-0.6,0-1,0.1-1.2,0.4c-0.2,0.3-0.3,0.5-0.3,0.8s0.5,0.7,1.5,1.1c1,0.5,2.3,1,3.8,1.6c1.5,0.6,3.1,1.2,4.8,1.8
				c1.7,0.6,3.2,1.1,4.4,1.7c1.1,0.5,2.5,1.1,4.2,2.1c1.7,0.9,3.3,2.2,4.8,3.6c1.5,1.5,2.8,3.3,4,5.3c1.1,2.1,1.7,4.4,1.7,7
				c0,3.3-0.8,6.2-2.5,8.5c-1.7,2.4-3.9,4.3-6.7,5.8c-2.8,1.5-5.9,2.6-9.5,3.3C431.5,584.9,427.9,585.3,424.1,585.3z"/>
		</g>
	</g>
	<g>
		<g>
			<path class="st1" d="M458.8,502.2c0-3.5,1.2-6.4,3.6-8.8c2.4-2.4,5.4-3.6,9-3.6c3.5,0,6.5,1.2,9,3.6c2.5,2.4,3.7,5.3,3.7,8.8
				c0,3.6-1.2,6.6-3.7,8.9c-2.5,2.3-5.5,3.5-9,3.5c-3.6,0-6.6-1.2-9-3.5C460.1,508.8,458.8,505.8,458.8,502.2z M458.8,532.8
				c0-3.5,1.2-6.5,3.6-9c2.4-2.5,5.4-3.7,9-3.7c1.7,0,3.3,0.3,4.9,1c1.6,0.7,2.9,1.6,4,2.7c1.1,1.1,2,2.5,2.7,4c0.7,1.6,1,3.2,1,4.9
				v39.8c0,3.6-1.2,6.6-3.7,9c-2.5,2.4-5.5,3.6-9,3.6c-3.6,0-6.6-1.2-9-3.6c-2.4-2.4-3.6-5.4-3.6-9V532.8z"/>
		</g>
	</g>
	<g>
		<g>
			<path class="st0" d="M563.5,455.5c3.5-0.4,6.6,0.5,9.3,2.6c2.7,2.1,4.3,5,4.7,8.5c0.2,1.8,0.1,3.5-0.4,5.1
				c-0.5,1.6-1.2,3-2.2,4.3c-1,1.2-2.2,2.3-3.7,3.1c-1.5,0.8-3.1,1.4-4.8,1.6l-25.2,2.9l9.7,85.9c0.4,3.6-0.4,6.7-2.5,9.4
				c-2.1,2.7-4.9,4.2-8.3,4.6c-3.6,0.4-6.6-0.4-9.2-2.6c-2.6-2.1-4.1-5-4.5-8.6l-10.2-85.8l-25.2,2.9c-3.6,0.4-6.7-0.5-9.4-2.6
				c-2.7-2.2-4.2-5-4.6-8.5c-0.4-3.6,0.4-6.7,2.6-9.4c2.1-2.7,5-4.2,8.5-4.6L563.5,455.5z"/>
		</g>
	</g>
	<g>
		<g>
			<path class="st0" d="M565.5,528.8c0-2.4,0.6-4.5,1.9-6.1c1.3-1.7,3.1-2.5,5.5-2.5c1.8,0,3.6,0.7,5.3,2c1.8,1.3,2.9,2.7,3.6,4.2
				c2.8-2.1,5.9-3.6,9.2-4.6c3.4-1,6.6-1.5,9.8-1.5c4.5,0,8.6,0.9,12.3,2.6c3.7,1.7,6.8,4,9.4,7c2.6,3,4.6,6.4,6.1,10.4
				c1.4,4,2.2,8.2,2.2,12.7v20.1c0,1.7-0.3,3.3-1,4.8c-0.7,1.5-1.6,2.9-2.7,4c-1.1,1.1-2.4,2-4,2.7c-1.5,0.7-3.1,1-4.8,1
				c-1.7,0-3.3-0.3-4.8-1c-1.5-0.7-2.9-1.6-4-2.7c-1.1-1.1-2-2.4-2.7-4c-0.7-1.5-1-3.1-1-4.8l-0.3-20.1c0-2.1-0.7-3.9-2-5.5
				c-1.3-1.6-3.1-2.4-5.1-2.4c-2.1,0-3.8,0.8-5.3,2.4c-1.4,1.6-2.2,3.4-2.2,5.5l-0.3,20.1c0,1.7-0.3,3.3-1,4.8
				c-0.7,1.5-1.6,2.9-2.7,4c-1.1,1.1-2.4,2-4,2.7c-1.5,0.7-3.1,1-4.8,1c-1.7,0-3.3-0.3-4.8-1c-1.5-0.7-2.9-1.6-4-2.7
				c-1.1-1.1-2-2.4-2.7-4c-0.7-1.5-1-3.1-1-4.8v-20.1V528.8z"/>
		</g>
	</g>
	<g>
		<path class="st0" d="M504.2,583.5L504.2,583.5c-5.1,0-9.3-4.2-9.3-9.3l0,0c0-5.1,4.2-9.3,9.3-9.3h0c5.1,0,9.3,4.2,9.3,9.3l0,0
			C513.5,579.4,509.4,583.5,504.2,583.5z"/>
	</g>
	<g>
		<g>
			<path class="st2" d="M418.6,292.9c-0.1,0.1-0.2,0.1-0.2,0.1s0,0-0.2-0.1h0.1C418.4,293,418.5,292.9,418.6,292.9z"/>
		</g>
	</g>
</g>
</svg>
